{
  "accessors": [
    {
      "bufferView": 2,
      "componentType": 5126,
      "count": 65532,
      "max": [
        18.587194442749023,
        1.1805989742279053,
        26.532930374145508
      ],
      "min": [
        -21.375093460083008,
        -4.211308002471924,
        -24.250030517578125
      ],
      "type": "VEC3"
    },
    {
      "bufferView": 2,
      "byteOffset": 786384,
      "componentType": 5126,
      "count": 65532,
      "max": [
        0.9997555017471313,
        0.6101210117340088,
        0.9997351169586182
      ],
      "min": [
        -0.999958872795105,
        -0.9999982118606567,
        -0.9998396635055542
      ],
      "type": "VEC3"
    },
    {
      "bufferView": 1,
      "componentType": 5126,
      "count": 65532,
      "max": [
        0.9993730187416077,
        0.9999520182609558
      ],
      "min": [
        0.060826998203992844,
        0.05086899921298027
      ],
      "type": "VEC2"
    },
    {
      "bufferView": 0,
      "componentType": 5125,
      "count": 351693,
      "type": "SCALAR"
    },
    {
      "bufferView": 2,
      "byteOffset": 1572768,
      "componentType": 5126,
      "count": 65532,
      "max": [
        26.32619857788086,
        1.2270829677581787,
        28.1468563079834
      ],
      "min": [
        -25.312889099121094,
        -3.7470829486846924,
        -21.68085479736328
      ],
      "type": "VEC3"
    },
    {
      "bufferView": 2,
      "byteOffset": 2359152,
      "componentType": 5126,
      "count": 65532,
      "max": [
        0.9997555017471313,
        0.5632069110870361,
        0.9997351169586182
      ],
      "min": [
        -0.9998616576194763,
        -0.9999997615814209,
        -0.9998736381530762
      ],
      "type": "VEC3"
    },
    {
      "bufferView": 1,
      "byteOffset": 524256,
      "componentType": 5126,
      "count": 65532,
      "max": [
        0.9999369978904724,
        0.9983739852905273
      ],
      "min": [
        5.500000042957254e-05,
        0.05098000168800354
      ],
      "type": "VEC2"
    },
    {
      "bufferView": 0,
      "byteOffset": 1406772,
      "componentType": 5125,
      "count": 327309,
      "type": "SCALAR"
    },
    {
      "bufferView": 2,
      "byteOffset": 3145536,
      "componentType": 5126,
      "count": 31702,
      "max": [
        18.727672576904297,
        1.213703989982605,
        8.324790954589844
      ],
      "min": [
        -26.623882293701172,
        -4.182876110076904,
        -23.63491439819336
      ],
      "type": "VEC3"
    },
    {
      "bufferView": 2,
      "byteOffset": 3525960,
      "componentType": 5126,
      "count": 31702,
      "max": [
        0.9989405870437622,
        0.6053751111030579,
        0.9856854677200317
      ],
      "min": [
        -0.9999381303787231,
        -0.9999966621398926,
        -0.9998736381530762
      ],
      "type": "VEC3"
    },
    {
      "bufferView": 1,
      "byteOffset": 1048512,
      "componentType": 5126,
      "count": 31702,
      "max": [
        0.9999880194664001,
        0.9963189959526062
      ],
      "min": [
        0.003693999955430627,
        0.09853500127792358
      ],
      "type": "VEC2"
    },
    {
      "bufferView": 0,
      "byteOffset": 2716008,
      "componentType": 5125,
      "count": 142782,
      "type": "SCALAR"
    }
  ],
  "asset": {
    "extras": {
      "author": "John Fino (tauricity) (https://sketchfab.com/tauricity)",
      "license": "CC-BY-4.0 (http://creativecommons.org/licenses/by/4.0/)",
      "source": "https://sketchfab.com/3d-models/coffee-beans-autodesk-memento-031fd22dc6b943c09906b0a9f65fd199",
      "title": "Coffee Beans- Autodesk Memento"
    },
    "generator": "Sketchfab-12.66.0",
    "version": "2.0"
  },
  "bufferViews": [
    {
      "buffer": 0,
      "byteLength": 3287136,
      "name": "floatBufferViews",
      "target": 34963
    },
    {
      "buffer": 0,
      "byteLength": 1302128,
      "byteOffset": 3287136,
      "byteStride": 8,
      "name": "floatBufferViews",
      "target": 34962
    },
    {
      "buffer": 0,
      "byteLength": 3906384,
      "byteOffset": 4589264,
      "byteStride": 12,
      "name": "floatBufferViews",
      "target": 34962
    }
  ],
  "buffers": [
    {
      "byteLength": 8495648,
      "uri": "beans.bin"
    }
  ],
  "extensionsUsed": [
    "KHR_materials_unlit"
  ],
  "images": [
    {
      "uri": "textures/Material_0_baseColor.jpeg"
    }
  ],
  "materials": [
    {
      "doubleSided": true,
      "extensions": {
        "KHR_materials_unlit": {}
      },
      "name": "Material_0",
      "pbrMetallicRoughness": {
        "baseColorTexture": {
          "index": 0
        },
        "metallicFactor": 0.0
      }
    }
  ],
  "meshes": [
    {
      "name": "Object_0",
      "primitives": [
        {
          "attributes": {
            "NORMAL": 1,
            "POSITION": 0,
            "TEXCOORD_0": 2
          },
          "indices": 3,
          "material": 0,
          "mode": 4
        }
      ]
    },
    {
      "name": "Object_1",
      "primitives": [
        {
          "attributes": {
            "NORMAL": 5,
            "POSITION": 4,
            "TEXCOORD_0": 6
          },
          "indices": 7,
          "material": 0,
          "mode": 4
        }
      ]
    },
    {
      "name": "Object_2",
      "primitives": [
        {
          "attributes": {
            "NORMAL": 9,
            "POSITION": 8,
            "TEXCOORD_0": 10
          },
          "indices": 11,
          "material": 0,
          "mode": 4
        }
      ]
    }
  ],
  "nodes": [
    {
      "children": [
        1
      ],
      "matrix": [
        0.00670978520065546,
        0.0,
        0.0,
        0.0,
        0.0,
        -0.00670978520065546,
        0.0,
        0.0,
        0.0,
        0.0,
        -0.00670978520065546,
        0.0,
        0.0,
        0.0,
        0.0,
        1.0
      ],
      "name": "Sketchfab_model"
    },
    {
      "children": [
        2,
        3,
        4
      ],
      "name": "CoffeeBeans-best-exported.obj.cleaner"
    },
    {
      "mesh": 0,
      "name": "Object_2"
    },
    {
      "mesh": 1,
      "name": "Object_3"
    },
    {
      "mesh": 2,
      "name": "Object_4"
    }
  ],
  "samplers": [
    {
      "magFilter": 9729,
      "minFilter": 9987,
      "wrapS": 10497,
      "wrapT": 10497
    }
  ],
  "scene": 0,
  "scenes": [
    {
      "name": "Sketchfab_Scene",
      "nodes": [
        0
      ]
    }
  ],
  "textures": [
    {
      "sampler": 0,
      "source": 0
    }
  ]
}
