{
  "accessors": [
    {
      "bufferView": 2,
      "componentType": 5126,
      "count": 182,
      "max": [
        107.71150207519531,
        88.58966827392578,
        107.7115249633789
      ],
      "min": [
        -107.7115249633789,
        -57.528568267822266,
        -107.71153259277344
      ],
      "type": "VEC3"
    },
    {
      "bufferView": 2,
      "byteOffset": 2184,
      "componentType": 5126,
      "count": 182,
      "max": [
        0.9987544417381287,
        1.0,
        0.9987545013427734
      ],
      "min": [
        -0.9987545013427734,
        -1.0,
        -0.9987544417381287
      ],
      "type": "VEC3"
    },
    {
      "bufferView": 1,
      "componentType": 5126,
      "count": 182,
      "max": [
        0.9795807003974915,
        0.9665952920913696
      ],
      "min": [
        0.6707577705383301,
        0.3523472249507904
      ],
      "type": "VEC2"
    },
    {
      "bufferView": 0,
      "componentType": 5125,
      "count": 720,
      "type": "SCALAR"
    },
    {
      "bufferView": 2,
      "byteOffset": 4368,
      "componentType": 5126,
      "count": 105,
      "max": [
        99.99999237060547,
        11.176567077636719,
        100.00000762939453
      ],
      "min": [
        -100.00001525878906,
        -100.0,
        -100.00004577636719
      ],
      "type": "VEC3"
    },
    {
      "bufferView": 2,
      "byteOffset": 5628,
      "componentType": 5126,
      "count": 105,
      "max": [
        0.9573171138763428,
        1.0,
        0.9573171138763428
      ],
      "min": [
        -0.9573172330856323,
        -1.0,
        -0.9573171138763428
      ],
      "type": "VEC3"
    },
    {
      "bufferView": 1,
      "byteOffset": 1456,
      "componentType": 5126,
      "count": 105,
      "max": [
        0.9611305594444275,
        0.7792903184890747
      ],
      "min": [
        0.37965473532676697,
        0.015847325325012207
      ],
      "type": "VEC2"
    },
    {
      "bufferView": 0,
      "byteOffset": 2880,
      "componentType": 5125,
      "count": 360,
      "type": "SCALAR"
    },
    {
      "bufferView": 2,
      "byteOffset": 6888,
      "componentType": 5126,
      "count": 152,
      "max": [
        131.58575439453125,
        100.0,
        95.10565948486328
      ],
      "min": [
        -100.0,
        -363.63934326171875,
        -95.10567474365234
      ],
      "type": "VEC3"
    },
    {
      "bufferView": 2,
      "byteOffset": 8712,
      "componentType": 5126,
      "count": 152,
      "max": [
        0.9933091998100281,
        1.0,
        1.0
      ],
      "min": [
        -0.9938772320747375,
        -1.0,
        -1.0
      ],
      "type": "VEC3"
    },
    {
      "bufferView": 1,
      "byteOffset": 2296,
      "componentType": 5126,
      "count": 152,
      "max": [
        0.4824504256248474,
        0.5569111108779907
      ],
      "min": [
        0.013496756553649902,
        0.03242957592010498
      ],
      "type": "VEC2"
    },
    {
      "bufferView": 0,
      "byteOffset": 4320,
      "componentType": 5125,
      "count": 420,
      "type": "SCALAR"
    },
    {
      "bufferView": 2,
      "byteOffset": 10536,
      "componentType": 5126,
      "count": 64,
      "max": [
        50.0,
        106.16986083984375,
        49.999996185302734
      ],
      "min": [
        -50.0,
        -69.08395385742188,
        -49.999996185302734
      ],
      "type": "VEC3"
    },
    {
      "bufferView": 2,
      "byteOffset": 11304,
      "componentType": 5126,
      "count": 64,
      "max": [
        1.0,
        1.0,
        1.0
      ],
      "min": [
        -1.0,
        -0.9806706309318542,
        -1.0
      ],
      "type": "VEC3"
    },
    {
      "bufferView": 1,
      "byteOffset": 3512,
      "componentType": 5126,
      "count": 64,
      "max": [
        0.47442448139190674,
        0.9836928844451904
      ],
      "min": [
        0.023635774850845337,
        0.36027002334594727
      ],
      "type": "VEC2"
    },
    {
      "bufferView": 0,
      "byteOffset": 6000,
      "componentType": 5125,
      "count": 168,
      "type": "SCALAR"
    }
  ],
  "asset": {
    "extras": {
      "author": "Citrus (https://sketchfab.com/citrusfriendd)",
      "license": "CC-BY-4.0 (http://creativecommons.org/licenses/by/4.0/)",
      "source": "https://sketchfab.com/3d-models/japanese-pudding-2fe0451867b5422980b02064ed3efdb0",
      "title": "Japanese Pudding"
    },
    "generator": "Sketchfab-12.68.0",
    "version": "2.0"
  },
  "bufferViews": [
    {
      "buffer": 0,
      "byteLength": 6672,
      "name": "floatBufferViews",
      "target": 34963
    },
    {
      "buffer": 0,
      "byteLength": 4024,
      "byteOffset": 6672,
      "byteStride": 8,
      "name": "floatBufferViews",
      "target": 34962
    },
    {
      "buffer": 0,
      "byteLength": 12072,
      "byteOffset": 10696,
      "byteStride": 12,
      "name": "floatBufferViews",
      "target": 34962
    }
  ],
  "buffers": [
    {
      "byteLength": 22768,
      "uri": "pudding.bin"
    }
  ],
  "extensionsUsed": [
    "KHR_materials_unlit"
  ],
  "images": [
    {
      "uri": "textures/lambert2_baseColor.png"
    }
  ],
  "materials": [
    {
      "doubleSided": true,
      "extensions": {
        "KHR_materials_unlit": {}
      },
      "name": "lambert2",
      "pbrMetallicRoughness": {
        "baseColorTexture": {
          "index": 0
        },
        "metallicFactor": 0.0
      }
    }
  ],
  "meshes": [
    {
      "name": "Plate_lambert2_0",
      "primitives": [
        {
          "attributes": {
            "NORMAL": 1,
            "POSITION": 0,
            "TEXCOORD_0": 2
          },
          "indices": 3,
          "material": 0,
          "mode": 4
        }
      ]
    },
    {
      "name": "Pudding_lambert2_0",
      "primitives": [
        {
          "attributes": {
            "NORMAL": 5,
            "POSITION": 4,
            "TEXCOORD_0": 6
          },
          "indices": 7,
          "material": 0,
          "mode": 4
        }
      ]
    },
    {
      "name": "Spoon_lambert2_0",
      "primitives": [
        {
          "attributes": {
            "NORMAL": 9,
            "POSITION": 8,
            "TEXCOORD_0": 10
          },
          "indices": 11,
          "material": 0,
          "mode": 4
        }
      ]
    },
    {
      "name": "SpoonBottom_lambert2_0",
      "primitives": [
        {
          "attributes": {
            "NORMAL": 13,
            "POSITION": 12,
            "TEXCOORD_0": 14
          },
          "indices": 15,
          "material": 0,
          "mode": 4
        }
      ]
    }
  ],
  "nodes": [
    {
      "children": [
        1
      ],
      "matrix": [
        1.0,
        0.0,
        0.0,
        0.0,
        0.0,
        2.220446049250313e-16,
        -1.0,
        0.0,
        0.0,
        1.0,
        2.220446049250313e-16,
        0.0,
        0.0,
        0.0,
        0.0,
        1.0
      ],
      "name": "Sketchfab_model"
    },
    {
      "children": [
        2
      ],
      "matrix": [
        1.0,
        0.0,
        0.0,
        0.0,
        0.0,
        0.0,
        1.0,
        0.0,
        0.0,
        -1.0,
        0.0,
        0.0,
        0.0,
        0.0,
        0.0,
        1.0
      ],
      "name": "pudding.fbx"
    },
    {
      "children": [
        3,
        5,
        7
      ],
      "name": "RootNode"
    },
    {
      "children": [
        4
      ],
      "matrix": [
        0.014558475464582443,
        0.0,
        0.0,
        0.0,
        0.0,
        0.0011397009948268533,
        0.0,
        0.0,
        0.0,
        0.0,
        0.014558475464582443,
        0.0,
        0.0,
        0.11500152200460434,
        0.0,
        1.0
      ],
      "name": "Plate"
    },
    {
      "mesh": 0,
      "name": "Plate_lambert2_0"
    },
    {
      "children": [
        6
      ],
      "matrix": [
        0.011041059158742428,
        0.0,
        0.0,
        0.0,
        0.0,
        0.009726685471832752,
        0.0,
        0.0,
        0.0,
        0.0,
        0.011041059158742428,
        0.0,
        0.0,
        1.0343701839447021,
        0.0,
        1.0
      ],
      "name": "Pudding"
    },
    {
      "mesh": 1,
      "name": "Pudding_lambert2_0"
    },
    {
      "children": [
        8,
        9
      ],
      "matrix": [
        -0.0029371798572617753,
        -0.00011545514899252329,
        0.0028149615352982896,
        0.0,
        -8.891543534538363e-05,
        0.00046711815819566456,
        -7.3617144158444e-05,
        0.0,
        -0.0022290371352745404,
        -0.0007959852040583621,
        -0.002358463333121093,
        0.0,
        0.5462719798088074,
        0.4066472053527832,
        1.2139700651168823,
        1.0
      ],
      "name": "Spoon"
    },
    {
      "mesh": 2,
      "name": "Spoon_lambert2_0"
    },
    {
      "children": [
        10
      ],
      "matrix": [
        6.054389807253174e-16,
        -1.3633273839950562,
        3.469446879121535e-18,
        0.0,
        2.014171600341797,
        8.944718744982247e-16,
        -7.758306796465253e-34,
        0.0,
        -4.490439848018987e-34,
        1.4833665808482435e-18,
        0.5828924179077148,
        0.0,
        -287.86993408203125,
        2.478355884552002,
        -11.20111083984375,
        1.0
      ],
      "name": "SpoonBottom"
    },
    {
      "mesh": 3,
      "name": "SpoonBottom_lambert2_0"
    }
  ],
  "samplers": [
    {
      "magFilter": 9729,
      "minFilter": 9987,
      "wrapS": 10497,
      "wrapT": 10497
    }
  ],
  "scene": 0,
  "scenes": [
    {
      "name": "Sketchfab_Scene",
      "nodes": [
        0
      ]
    }
  ],
  "textures": [
    {
      "sampler": 0,
      "source": 0
    }
  ]
}
